<!DOCTYPE svg PUBLIC "-//W3C//DTD SVG 1.1//EN" "https://www.w3.org/Graphics/SVG/1.1/DTD/svg11.dtd">
<svg xmlns="http://www.w3.org/2000/svg" id="sfn-svg" class="sfn-workflow-graph" width="244" height="468">
    
    
<g transform="translate(14.5,19.191667556762695)"><g class="nodes"><g class="node-container" transform="translate(112.19166564941406,19)"><g class="node anchor"><circle class="shape" x="-16.191667556762695" y="-9" r="26.191667556762695"/><text class="label"><tspan xml:space="preserve" text-anchor="middle" alignment-baseline="central">Start</tspan></text></g></g><g class="node-container" transform="translate(112.19166564941406,414)"><g class="node anchor"><circle class="shape" x="-12.175000190734863" y="-9" r="22.175000190734863"/><text class="label"><tspan xml:space="preserve" text-anchor="middle" alignment-baseline="central">End</tspan></text></g></g><g class="node-container" transform="translate(112.19166564941406,82)"><g class="node state Task NotYetStarted"><rect class="shape" rx="5" ry="5" x="-61.983333587646484" y="-19" width="123.96666717529297" height="38"/><text class="label"><tspan xml:space="preserve" text-anchor="middle" alignment-baseline="central">DescribeRegions</tspan></text></g></g><g class="node-container" transform="translate(112.19166564941406,216.5)"><g class="node state Map NotYetStarted Container" transform="translate(-104.69166564941406,-90.5)"><rect class="shape" rx="5" ry="5" x="-10" y="-10" width="207.38333129882812" height="179"/><rect class="shape" rx="5" ry="5" x="-5" y="-5" width="208.38333129882812" height="180"/><rect class="shape" rx="5" ry="5" x="0" y="0" width="209.38333129882812" height="181"/><g class="branches" transform="translate(20,20)"><g class="branch" transform="translate(0,0)"><g class="nodes"><g class="node-container" transform="translate(87.19166564941406,19)"><g class="node state Task NotYetStarted"><rect class="shape" rx="5" ry="5" x="-46.46666717529297" y="-19" width="92.93333435058594" height="38"/><text class="label"><tspan xml:space="preserve" text-anchor="middle" alignment-baseline="central">ListClusters</tspan></text></g></g><g class="node-container" transform="translate(87.19166564941406,102)"><g class="node state Map NotYetStarted Container" transform="translate(-79.69166564941406,-39)"><rect class="shape" rx="5" ry="5" x="-10" y="-10" width="157.38333129882812" height="76"/><rect class="shape" rx="5" ry="5" x="-5" y="-5" width="158.38333129882812" height="77"/><rect class="shape" rx="5" ry="5" x="0" y="0" width="159.38333129882812" height="78"/><g class="branches" transform="translate(20,20)"><g class="branch" transform="translate(0,0)"><g class="nodes"><g class="node-container" transform="translate(59.69166564941406,19)"><g class="node state Task NotYetStarted"><rect class="shape" rx="5" ry="5" x="-59.69166564941406" y="-19" width="119.38333129882812" height="38"/><text class="label"><tspan xml:space="preserve" text-anchor="middle" alignment-baseline="central">DescribeCluster</tspan></text></g></g></g><g class="edges"/></g></g><path class="path" style="fill: none;" marker-end="url(#arrowhead8)" d="M79.69166564941406,0L79.69166564941406,1.6666666666666665C79.69166564941406,3.333333333333333,79.69166564941406,6.666666666666666,79.69166564941406,8.333333333333332C79.69166564941406,10,79.69166564941406,10,79.69166564941406,11.666666666666664C79.69166564941406,13.333333333333332,79.69166564941406,16.666666666666664,79.69166564941406,18.333333333333332L79.69166564941406,20"/></g></g></g><g class="edges"><g class="edge"><path class="path" style="fill: none;" marker-end="url(#arrowhead9)" d="M87.19166564941406,38L87.19166564941406,40.08333333333333C87.19166564941406,42.166666666666664,87.19166564941406,46.33333333333333,87.19166564941406,50.5C87.19166564941406,54.666666666666664,87.19166564941406,58.83333333333333,87.19166564941406,60.916666666666664L87.19166564941406,63"/><defs><marker id="arrowhead9" viewBox="0 0 10 10" refX="9" refY="5" markerUnits="strokeWidth" markerWidth="8" markerHeight="6" orient="auto"><path d="M 0 0 L 10 5 L 0 10 z"/></marker></defs></g></g></g></g><path class="path" style="fill: none;" marker-end="url(#arrowhead10)" d="M104.69166564941406,0L104.69166564941403,1.6666666666666665C104.69166564941405,3.333333333333333,104.69166564941405,6.666666666666666,105.1083323160807,8.333333333333332C105.52499898274738,10,106.35833231608072,10,106.77499898274739,11.666666666666664C107.19166564941406,13.333333333333332,107.19166564941406,16.666666666666664,107.19166564941405,18.333333333333332L107.19166564941406,20"/></g></g><g class="node-container" transform="translate(112.19166564941406,351)"><g class="node state Task NotYetStarted"><rect class="shape" rx="5" ry="5" x="-30.350000381469727" y="-19" width="60.70000076293945" height="38"/><text class="label"><tspan xml:space="preserve" text-anchor="middle" alignment-baseline="central">Notify</tspan></text></g></g></g><g class="edges"><g class="edge"><path class="path" style="fill: none;" marker-end="url(#arrowhead11)" d="M112.19166564941406,101L112.19166564941403,103.08333333333331C112.19166564941405,105.16666666666666,112.19166564941405,109.33333333333331,112.19166564941403,113.49999999999999C112.19166564941405,117.66666666666666,112.19166564941405,121.83333333333333,112.19166564941403,123.91666666666666L112.19166564941406,126"/><defs><marker id="arrowhead11" viewBox="0 0 10 10" refX="9" refY="5" markerUnits="strokeWidth" markerWidth="8" markerHeight="6" orient="auto"><path d="M 0 0 L 10 5 L 0 10 z"/></marker></defs></g><g class="edge"><path class="path" style="fill: none;" marker-end="url(#arrowhead12)" d="M112.19166564941406,45.191667556762695L112.19166564941403,46.076389630635575C112.19166564941405,46.96111170450846,112.19166564941405,48.73055585225423,112.19166564941403,51.69861125946045C112.19166564941405,54.666666666666664,112.19166564941405,58.83333333333333,112.19166564941403,60.916666666666664L112.19166564941406,63"/><defs><marker id="arrowhead12" viewBox="0 0 10 10" refX="9" refY="5" markerUnits="strokeWidth" markerWidth="8" markerHeight="6" orient="auto"><path d="M 0 0 L 10 5 L 0 10 z"/></marker></defs></g><g class="edge"><path class="path" style="fill: none;" marker-end="url(#arrowhead13)" d="M112.19166564941406,307L112.19166564941403,309.0833333333333C112.19166564941405,311.16666666666663,112.19166564941405,315.3333333333333,112.19166564941403,319.5C112.19166564941405,323.66666666666663,112.19166564941405,327.8333333333333,112.19166564941403,329.91666666666663L112.19166564941406,332"/><defs><marker id="arrowhead13" viewBox="0 0 10 10" refX="9" refY="5" markerUnits="strokeWidth" markerWidth="8" markerHeight="6" orient="auto"><path d="M 0 0 L 10 5 L 0 10 z"/></marker></defs></g><g class="edge"><path class="path" style="fill: none;" marker-end="url(#arrowhead14)" d="M112.19166564941406,370L112.19166564941403,372.0833333333333C112.19166564941405,374.16666666666663,112.19166564941405,378.3333333333333,112.19166564941403,381.9708333015442C112.19166564941405,385.608333269755,112.19166564941405,388.7166665395101,112.19166564941403,390.2708331743876L112.19166564941406,391.82499980926514"/><defs><marker id="arrowhead14" viewBox="0 0 10 10" refX="9" refY="5" markerUnits="strokeWidth" markerWidth="8" markerHeight="6" orient="auto"><path d="M 0 0 L 10 5 L 0 10 z"/></marker></defs></g></g></g><style xmlns="http://www.w3.org/1999/xhtml">.node &gt; .shape {stroke: #555555;stroke-width: 0.6px;fill: #FFFFFF;} path {stroke: #555;background-color: #555;stroke-width: 1px;} .node.state.NotYetStarted &gt; .shape,.node.state.Container &gt; .shape {stroke-dasharray: 5 2;} .node.state.Failed &gt; .shape,rect.legend.Failed {fill: #DE322F;} .node.state.CaughtError &gt; .shape,rect.legend.CaughtError {fill: #FFA500;} .node.state.Succeeded &gt; .shape,rect.legend.Succeeded {fill: #2BD62E;} .node.state.InProgress &gt; .shape,rect.legend.InProgress {fill: #53c9ed;} .node.state.Cancelled &gt; .shape,rect.legend.Cancelled {fill: #dddddd;} .node.anchor &gt; .shape {fill: #FFDA75;} .node.state.hovered:not(.selected):not(.NotYetStarted) &gt; .shape,.node.selected &gt; .shape {stroke: #555555;stroke-width: 2px;} .node.state.Container.Failed &gt; .shape {fill: #EE9592;} .node.state.Container.CaughtError &gt; .shape {fill: #FFD27F;} .node.state.Container.Succeeded &gt; .shape {fill: #91EA9A;} .node.state.Container.InProgress &gt; .shape {fill :#A9E4F7;} .node.state.Container.Cancelled &gt; .shape {fill: #EEEEEE;} marker {fill: #555555;} .node.anchor,.node.state.NotYetStarted {cursor: default;} .node.state {cursor: pointer;} tspan .label {font-weight: normal;font-size: 12px;text-shadow: none;} </style></svg>
